# xmcd
#
# Track frame offsets:
#	150
#	14009
#	37956
#	50943
#	63507
#	78184
#	93271
#	105370
#	125510
#	136942
#	145805
#	157609
#	175109
#	190457
#
# Disc length: 2683 seconds
#
# Revision: 0
# Processed by: cddbd v1.5.2PL0 Copyright (c) Steve Scherf et al.
# Submitted via: EasyCDDAExtractor 11.9.9.666
#
DISCID=b40a790e
DTITLE=Anjos Indomáveis - É Assim Que Se Faz Baile!
DYEAR=1900
DGENRE=
TTITLE0=Tarde demais
TTITLE1=Pout-Pourri Jovem Guarda
TTITLE2=Vem pra mim
TTITLE3=Palavras
TTITLE4=Bailarina
TTITLE5=Vida minha
TTITLE6=Mulher ingrata
TTITLE7=Pout-Pourri Italiano
TTITLE8=Amor sem rotina
TTITLE9=Eu hoje vou dar três
TTITLE10=Não esquente a cabeça
TTITLE11=Eu não aceito o teu adeus
TTITLE12=Volte logo
TTITLE13=Comprometida
EXTD=
EXTT0=
EXTT1=
EXTT2=
EXTT3=
EXTT4=
EXTT5=
EXTT6=
EXTT7=
EXTT8=
EXTT9=
EXTT10=
EXTT11=
EXTT12=
EXTT13=
PLAYORDER=
